<svg width="63" height="89" viewBox="0 0 63 89" fill="none" xmlns="http://www.w3.org/2000/svg">
<g clip-path="url(#clip0_46_122)">
<path d="M0.780029 0.519531V88.6728H62.2199V0.519531H0.780029ZM2.11594 87.3369V1.85544H60.884V87.3369H2.11594Z" fill="#3C3C3B"/>
<path d="M17.2699 21.4256L14.5716 18.7249L15.5159 17.7807L17.2699 19.537L21.2512 15.5557L22.1954 16.5L17.2699 21.4256Z" fill="#D5AE75"/>
<path d="M48.4355 15.9161H28.4017V17.252H48.4355V15.9161Z" fill="#3C3C3B"/>
<path d="M35.0788 19.2559H28.4017V20.5918H35.0788V19.2559Z" fill="#3C3C3B"/>
<path d="M17.2699 34.7823L14.5716 32.0816L15.5159 31.1374L17.2699 32.8913L21.2512 28.9124L22.1954 29.8567L17.2699 34.7823Z" fill="#D5AE75"/>
<path d="M48.4355 29.2728H28.4017V30.6088H48.4355V29.2728Z" fill="#3C3C3B"/>
<path d="M41.7584 32.6126H28.4017V33.9485H41.7584V32.6126Z" fill="#3C3C3B"/>
<path d="M17.2699 48.1366L14.5716 45.4383L15.5159 44.4941L17.2699 46.248L21.2512 42.2691L22.1954 43.2134L17.2699 48.1366Z" fill="#D5AE75"/>
<path d="M48.4355 42.6295H28.4017V43.9655H48.4355V42.6295Z" fill="#3C3C3B"/>
<path d="M38.4186 45.9693H28.4017V47.3052H38.4186V45.9693Z" fill="#3C3C3B"/>
<path d="M17.2699 61.4933L14.5716 58.795L15.5159 57.8508L17.2699 59.6048L21.2512 55.6259L22.1954 56.5701L17.2699 61.4933Z" fill="#D5AE75"/>
<path d="M48.4355 55.9863H28.4017V57.3222H48.4355V55.9863Z" fill="#3C3C3B"/>
<path d="M35.0788 59.326H28.4017V60.6619H35.0788V59.326Z" fill="#3C3C3B"/>
<path d="M17.2699 74.85L14.5716 72.1517L15.5159 71.2075L17.2699 72.9614L21.2512 68.9825L22.1954 69.9268L17.2699 74.85Z" fill="#D5AE75"/>
<path d="M48.4355 69.343H28.4017V70.6789H48.4355V69.343Z" fill="#3C3C3B"/>
<path d="M38.4186 72.6803H28.4017V74.0162H38.4186V72.6803Z" fill="#3C3C3B"/>
<path d="M17.7672 1.85544V5.7166" stroke="#3C3A3A" stroke-width="1.21577" stroke-miterlimit="10" stroke-linecap="round"/>
<path d="M17.7672 5.71661H45.3889" stroke="#3C3A3A" stroke-width="1.21577" stroke-miterlimit="10" stroke-linecap="round"/>
<path d="M45.3889 1.85544V5.7166" stroke="#3C3A3A" stroke-width="1.21577" stroke-miterlimit="10" stroke-linecap="round"/>
</g>
<defs>
<clipPath id="clip0_46_122">
<rect width="61.4399" height="88.1533" fill="white" transform="translate(0.780029 0.519531)"/>
</clipPath>
</defs>
</svg>
