<svg width="116" height="79" viewBox="0 0 116 79" fill="none" xmlns="http://www.w3.org/2000/svg">
<g clip-path="url(#clip0_45_97)">
<path d="M107.595 70.2056V4.54118C107.595 2.41127 105.863 0.67897 103.733 0.67897H12.2697C10.1398 0.67897 8.40753 2.41127 8.40753 4.54118V70.2056" stroke="#3C3C3B" stroke-width="1.35793" stroke-linecap="round" stroke-linejoin="round"/>
<path d="M104.321 65.1483H11.5024C11.1722 65.1483 10.9048 64.8809 10.9048 64.5507V3.97614C10.9048 3.64596 11.1722 3.37856 11.5024 3.37856H104.321C104.651 3.37856 104.919 3.64596 104.919 3.97614V64.5507C104.919 64.8809 104.651 65.1483 104.321 65.1483ZM12.1023 63.9531H103.723V4.57372H12.1V63.9554L12.1023 63.9531Z" fill="#3C3C3B"/>
<path d="M1.45277 70.2056V73.6075C1.45277 75.7397 3.18739 77.4743 5.31963 77.4743H110.68C112.813 77.4743 114.547 75.7397 114.547 73.6075V70.2056H1.45277Z" stroke="#3C3C3B" stroke-width="1.35793" stroke-linecap="round" stroke-linejoin="round"/>
<path d="M97.4173 8.79169C97.4173 9.6218 98.0893 10.2938 98.9194 10.2938C99.7495 10.2938 100.421 9.6218 100.421 8.79169C100.421 7.96159 99.7495 7.2896 98.9194 7.2896C98.0893 7.2896 97.4173 7.96159 97.4173 8.79169Z" fill="white"/>
<path d="M98.9171 10.8914C97.7591 10.8914 96.8174 9.94966 96.8174 8.7917C96.8174 7.63373 97.7591 6.69202 98.9171 6.69202C100.075 6.69202 101.017 7.63373 101.017 8.7917C101.017 9.94966 100.075 10.8914 98.9171 10.8914ZM98.9171 7.88718C98.4195 7.88718 98.0126 8.2941 98.0126 8.7917C98.0126 9.2893 98.4195 9.69621 98.9171 9.69621C99.4147 9.69621 99.8216 9.2893 99.8216 8.7917C99.8216 8.2941 99.4147 7.88718 98.9171 7.88718Z" fill="#3C3C3B"/>
<path d="M90.2068 8.79169C90.2068 9.6218 90.8788 10.2938 91.7089 10.2938C92.539 10.2938 93.211 9.6218 93.211 8.79169C93.211 7.96159 92.539 7.2896 91.7089 7.2896C90.8788 7.2896 90.2068 7.96159 90.2068 8.79169Z" fill="white"/>
<path d="M91.7089 10.8914C90.5509 10.8914 89.6092 9.94966 89.6092 8.7917C89.6092 7.63373 90.5509 6.69202 91.7089 6.69202C92.8668 6.69202 93.8085 7.63373 93.8085 8.7917C93.8085 9.94966 92.8668 10.8914 91.7089 10.8914ZM91.7089 7.88718C91.2113 7.88718 90.8044 8.2941 90.8044 8.7917C90.8044 9.2893 91.2113 9.69621 91.7089 9.69621C92.2065 9.69621 92.6134 9.2893 92.6134 8.7917C92.6134 8.2941 92.2065 7.88718 91.7089 7.88718Z" fill="#3C3C3B"/>
<path d="M82.9962 8.79169C82.9962 9.6218 83.6682 10.2938 84.4983 10.2938C85.3284 10.2938 86.0004 9.6218 86.0004 8.79169C86.0004 7.96159 85.3284 7.2896 84.4983 7.2896C83.6682 7.2896 82.9962 7.96159 82.9962 8.79169Z" fill="white"/>
<path d="M84.4983 10.8914C83.3404 10.8914 82.3987 9.94966 82.3987 8.7917C82.3987 7.63373 83.3404 6.69202 84.4983 6.69202C85.6563 6.69202 86.598 7.63373 86.598 8.7917C86.598 9.94966 85.6563 10.8914 84.4983 10.8914ZM84.4983 7.88718C84.0007 7.88718 83.5938 8.2941 83.5938 8.7917C83.5938 9.2893 84.0007 9.69621 84.4983 9.69621C84.9959 9.69621 85.4028 9.2893 85.4028 8.7917C85.4028 8.2941 84.9959 7.88718 84.4983 7.88718Z" fill="#3C3C3B"/>
<path d="M39.8656 18.0042L80.2455 34.2855L39.8656 51.9224V18.0042Z" stroke="#3C3C3B" stroke-width="0.981247" stroke-linecap="round" stroke-linejoin="round"/>
<path d="M42.6233 21.8455L73.3047 34.2158L42.6233 47.6161V21.8455Z" fill="url(#paint0_linear_45_97)"/>
<path d="M42.1606 70.2057L44.516 73.84H71.3701L73.507 70.2057" stroke="#3C3C3B" stroke-width="1.35793" stroke-linecap="round" stroke-linejoin="round"/>
</g>
<defs>
<linearGradient id="paint0_linear_45_97" x1="42.6233" y1="34.7296" x2="73.3047" y2="34.7296" gradientUnits="userSpaceOnUse">
<stop stop-color="#F2DFC1"/>
<stop offset="1" stop-color="#FBF5EC"/>
</linearGradient>
<clipPath id="clip0_45_97">
<rect width="114.452" height="78.1533" fill="white" transform="translate(0.773804)"/>
</clipPath>
</defs>
</svg>
