<svg width="110" height="73" fill="none" xmlns="http://www.w3.org/2000/svg"><g clip-path="url(#clip0_46_114)"><path d="M23.682 33.837v21.962c0 6.394 14.023 15.614 31.32 15.614 17.296 0 31.318-9.218 31.318-15.614V33.837" stroke="#231F20" stroke-width="1.695" stroke-linejoin="round"/><path d="M91.92 31.597L55 47.19 1.236 24.483 55.001 1.779l53.763 22.704-5.823 2.459" stroke="#231F20" stroke-width="1.695" stroke-linecap="round" stroke-linejoin="round"/><path d="M98.345 24.483L55.001 42.788 11.655 24.483 55 6.18l43.344 18.303z" fill="url(#paint0_linear_46_114)"/><path d="M55.001 23.776l43.176 5.115V43.61" stroke="#231F20" stroke-width="1.695" stroke-linecap="round" stroke-linejoin="round"/><path d="M98.177 54.407a5.347 5.347 0 10-.001-10.694 5.347 5.347 0 000 10.694z" stroke="#231F20" stroke-width="1.695" stroke-linejoin="round"/><path d="M94.807 53.206l-3.533 16.15h14.464l-4.192-16.15" stroke="#231F20" stroke-width="1.695" stroke-linejoin="round"/><path d="M98.177 51.832a2.772 2.772 0 100-5.543 2.772 2.772 0 000 5.543z" fill="#D5AE75"/></g><defs><linearGradient id="paint0_linear_46_114" x1="11.655" y1="24.483" x2="98.346" y2="24.483" gradientUnits="userSpaceOnUse"><stop stop-color="#F2DFC1"/><stop offset="1" stop-color="#FBF5EC"/></linearGradient><clipPath id="clip0_46_114"><path fill="#fff" transform="translate(.389 .932)" d="M0 0h109.223v71.329H0z"/></clipPath></defs></svg>