<svg width="116" height="79" fill="none" xmlns="http://www.w3.org/2000/svg"><g clip-path="url(#clip0_45_97)"><path d="M107.595 70.206V4.54a3.866 3.866 0 00-3.862-3.86H12.27a3.866 3.866 0 00-3.862 3.862v65.665" stroke="#3C3C3B" stroke-width="1.358" stroke-linecap="round" stroke-linejoin="round"/><path d="M104.321 65.148H11.502a.597.597 0 01-.597-.597V3.976c0-.33.267-.597.597-.597h92.819c.33 0 .598.267.598.597v60.575c0 .33-.268.597-.598.597zm-92.219-1.195h91.621V4.573H12.1v59.382l.002-.002z" fill="#3C3C3B"/><path d="M1.453 70.206v3.401a3.871 3.871 0 003.867 3.867h105.36a3.87 3.87 0 003.867-3.867v-3.401H1.453z" stroke="#3C3C3B" stroke-width="1.358" stroke-linecap="round" stroke-linejoin="round"/><path d="M97.417 8.792a1.501 1.501 0 103.003.001 1.501 1.501 0 00-3.003-.001z" fill="#fff"/><path d="M98.917 10.891c-1.158 0-2.1-.941-2.1-2.1 0-1.157.942-2.099 2.1-2.099 1.158 0 2.1.942 2.1 2.1 0 1.158-.942 2.1-2.1 2.1zm0-3.004a.907.907 0 00-.904.905c0 .497.406.904.904.904a.907.907 0 00.905-.904.907.907 0 00-.905-.905z" fill="#3C3C3B"/><path d="M90.207 8.792a1.501 1.501 0 103.003.001 1.501 1.501 0 00-3.003-.001z" fill="#fff"/><path d="M91.709 10.891c-1.158 0-2.1-.941-2.1-2.1 0-1.157.942-2.099 2.1-2.099 1.158 0 2.1.942 2.1 2.1 0 1.158-.942 2.1-2.1 2.1zm0-3.004a.907.907 0 00-.905.905c0 .497.407.904.905.904a.907.907 0 00.904-.904.907.907 0 00-.904-.905z" fill="#3C3C3B"/><path d="M82.996 8.792A1.501 1.501 0 1086 8.793a1.501 1.501 0 00-3.003-.001z" fill="#fff"/><path d="M84.498 10.891c-1.158 0-2.1-.941-2.1-2.1 0-1.157.942-2.099 2.1-2.099 1.158 0 2.1.942 2.1 2.1 0 1.158-.942 2.1-2.1 2.1zm0-3.004a.907.907 0 00-.904.905c0 .497.407.904.904.904a.907.907 0 00.905-.904.907.907 0 00-.905-.905z" fill="#3C3C3B"/><path d="M39.866 18.004l40.38 16.281-40.38 17.637V18.004z" stroke="#3C3C3B" stroke-width=".981" stroke-linecap="round" stroke-linejoin="round"/><path d="M42.623 21.846l30.682 12.37-30.682 13.4v-25.77z" fill="url(#paint0_linear_45_97)"/><path d="M42.16 70.206l2.356 3.634H71.37l2.137-3.634" stroke="#3C3C3B" stroke-width="1.358" stroke-linecap="round" stroke-linejoin="round"/></g><defs><linearGradient id="paint0_linear_45_97" x1="42.623" y1="34.73" x2="73.305" y2="34.73" gradientUnits="userSpaceOnUse"><stop stop-color="#F2DFC1"/><stop offset="1" stop-color="#FBF5EC"/></linearGradient><clipPath id="clip0_45_97"><path fill="#fff" transform="translate(.774)" d="M0 0h114.452v78.153H0z"/></clipPath></defs></svg>