<svg width="63" height="89" fill="none" xmlns="http://www.w3.org/2000/svg"><g clip-path="url(#clip0_46_122)"><path d="M.78.52v88.153h61.44V.52H.78zm1.336 86.817V1.855h58.768v85.482H2.116z" fill="#3C3C3B"/><path d="M17.27 21.426l-2.698-2.701.944-.944 1.754 1.756 3.981-3.981.944.944-4.925 4.926z" fill="#D5AE75"/><path d="M48.435 15.916H28.402v1.336h20.033v-1.336zm-13.356 3.34h-6.677v1.336h6.677v-1.336z" fill="#3C3C3B"/><path d="M17.27 34.782l-2.698-2.7.944-.945 1.754 1.754 3.981-3.979.944.945-4.925 4.925z" fill="#D5AE75"/><path d="M48.435 29.273H28.402v1.336h20.033v-1.336zm-6.677 3.34H28.402v1.336h13.356v-1.336z" fill="#3C3C3B"/><path d="M17.27 48.137l-2.698-2.699.944-.944 1.754 1.754 3.981-3.979.944.944-4.925 4.924z" fill="#D5AE75"/><path d="M48.435 42.63H28.402v1.335h20.033V42.63zm-10.016 3.34H28.402v1.335h10.017V45.97z" fill="#3C3C3B"/><path d="M17.27 61.493l-2.698-2.698.944-.944 1.754 1.754 3.981-3.98.944.945-4.925 4.923z" fill="#D5AE75"/><path d="M48.435 55.986H28.402v1.336h20.033v-1.336zm-13.356 3.34h-6.677v1.336h6.677v-1.336z" fill="#3C3C3B"/><path d="M17.27 74.85l-2.698-2.698.944-.945 1.754 1.754 3.981-3.978.944.944-4.925 4.923z" fill="#D5AE75"/><path d="M48.435 69.343H28.402v1.336h20.033v-1.336zM38.419 72.68H28.402v1.336h10.017V72.68z" fill="#3C3C3B"/><path d="M17.767 1.855v3.862m0 0H45.39m-.001-3.862v3.862" stroke="#3C3A3A" stroke-width="1.216" stroke-miterlimit="10" stroke-linecap="round"/></g><defs><clipPath id="clip0_46_122"><path fill="#fff" transform="translate(.78 .52)" d="M0 0h61.44v88.153H0z"/></clipPath></defs></svg>