<svg width="16" height="18" fill="none" xmlns="http://www.w3.org/2000/svg"><path d="M4.784 15.798v-.002c-.144-.46-.332-1.218-.556-2.116l-.064-.257a105.191 105.191 0 00-.884-3.366c-.333-1.169-.698-2.314-1.086-3.258-.395-.961-.79-1.654-1.159-1.975a.548.548 0 01-.19-.474.767.767 0 01.171-.394c.16-.202.414-.379.685-.501a2.06 2.06 0 01.932-.193c.33.016.67.138.919.44.522.555.967 1.419 1.343 2.365.381.961.704 2.044.966 3.056a46.12 46.12 0 01.622 2.786A98.601 98.601 0 019.79 6.111a44.151 44.151 0 011.938-2.898c.592-.8 1.144-1.442 1.595-1.778m-8.54 14.363l8.75-14.082m-8.75 14.082c.04.122.12.219.185.285.071.072.157.14.248.203.182.124.408.242.638.327.225.083.484.146.723.13.248-.015.545-.13.658-.464.583-1.717 1.974-4.74 3.495-7.547.76-1.401 1.547-2.74 2.277-3.829.739-1.1 1.395-1.908 1.888-2.282M4.784 15.798l9.9-13.456m-1.36-.907l.208.28m-.209-.28s0 0 0 0l.21.28m-.21-.28a1.04 1.04 0 01.694-.183c.225.014.45.083.636.182.175.093.371.244.461.458a.58.58 0 01.023.4.662.662 0 01-.242.33m-1.363-.906c.5-.373 1.668.237 1.152.626m.21.28l.001-.001-.211-.279m.21.28s0 0 0 0l-.21-.28" fill="#1E4BD2" stroke="#1E4BD2" stroke-width=".7"/></svg>