<svg width="40" height="54" fill="none" xmlns="http://www.w3.org/2000/svg"><g clip-path="url(#clip0_315_20509)"><path d="M2 54h36a2 2 0 002-2V13.828a2 2 0 00-.586-1.414L27.586.586A2 2 0 0026.172 0H2a2 2 0 00-2 2v50a2 2 0 002 2z" fill="#33A6DD"/><path d="M28 11.996v-11l11.012 11H28z" fill="#1E4BD2"/><path d="M9.852 33c2.66 0 4.27-1.645 4.27-4.372 0-2.719-1.61-4.355-4.244-4.355h-3.12V33h3.094zm-1.248-1.58v-5.566H9.78c1.636 0 2.501.835 2.501 2.774 0 1.947-.865 2.791-2.505 2.791H8.604zm14.905-2.783c0-2.856-1.773-4.483-4.087-4.483-2.326 0-4.086 1.627-4.086 4.483 0 2.842 1.76 4.483 4.086 4.483 2.314 0 4.087-1.628 4.087-4.483zm-1.87 0c0 1.849-.879 2.85-2.217 2.85-1.342 0-2.216-1.001-2.216-2.85 0-1.85.874-2.851 2.216-2.851 1.338 0 2.216 1.001 2.216 2.85zm10.937-1.309c-.243-2.015-1.768-3.174-3.788-3.174-2.306 0-4.066 1.627-4.066 4.483 0 2.846 1.73 4.483 4.066 4.483 2.237 0 3.588-1.488 3.788-3.094l-1.867-.009c-.174.933-.907 1.47-1.892 1.47-1.325 0-2.224-.984-2.224-2.85 0-1.816.886-2.851 2.237-2.851 1.01 0 1.739.583 1.88 1.542h1.866z" fill="#fff"/></g><defs><clipPath id="clip0_315_20509"><path fill="#fff" d="M0 0h40v54H0z"/></clipPath></defs></svg>