<svg width="40" height="54" fill="none" xmlns="http://www.w3.org/2000/svg"><g clip-path="url(#clip0_315_20496)"><path d="M2 54h36a2 2 0 002-2V13.828a2 2 0 00-.586-1.414L27.586.586A2 2 0 0026.172 0H2a2 2 0 00-2 2v50a2 2 0 002 2z" fill="#45B472"/><path d="M28 11.996v-11l11.012 11H28z" fill="#1DA855"/><path d="M10.665 33h6.682v-1.52h-4.368l4.36-6.111v-1.095h-6.683v1.521h4.364l-4.355 6.11V33zm9.943-8.727h-1.846V33h1.846v-8.727zM22.126 33h1.845v-2.83h1.551c2.007 0 3.175-1.197 3.175-2.94 0-1.734-1.147-2.957-3.128-2.957h-3.443V33zm1.845-4.308v-2.91h1.244c1.066 0 1.581.579 1.581 1.448 0 .865-.515 1.462-1.572 1.462H23.97z" fill="#fff"/></g><defs><clipPath id="clip0_315_20496"><path fill="#fff" d="M0 0h40v54H0z"/></clipPath></defs></svg>