<svg width="40" height="54" fill="none" xmlns="http://www.w3.org/2000/svg"><g clip-path="url(#clip0_315_20535)"><path d="M2 54h36a2 2 0 002-2V13.828a2 2 0 00-.586-1.414L27.586.586A2 2 0 0026.172 0H2a2 2 0 00-2 2v50a2 2 0 002 2z" fill="#E0544F"/><path d="M28 11.996v-11l11.012 11H28z" fill="#DF2F29"/><path d="M7.759 33h1.845v-2.83h1.55c2.008 0 3.176-1.197 3.176-2.94 0-1.734-1.147-2.957-3.128-2.957H7.759V33zm1.845-4.308v-2.91h1.244c1.065 0 1.581.579 1.581 1.448 0 .865-.516 1.462-1.572 1.462H9.604zm13.224-4.419H20.99v5.489h-.077l-3.767-5.49h-1.619V33h1.845v-5.493h.064L21.234 33h1.594v-8.727zm7.312 2.821h1.874c-.238-1.726-1.76-2.94-3.733-2.94-2.305 0-4.082 1.662-4.082 4.491 0 2.761 1.662 4.475 4.12 4.475 2.204 0 3.776-1.394 3.776-3.69v-1.1h-3.652v1.389h1.875c-.025 1.082-.763 1.768-1.99 1.768-1.385 0-2.258-1.035-2.258-2.859 0-1.815.907-2.842 2.241-2.842.95 0 1.594.49 1.828 1.308z" fill="#fff"/></g><defs><clipPath id="clip0_315_20535"><path fill="#fff" d="M0 0h40v54H0z"/></clipPath></defs></svg>