<svg width="66" height="68" fill="none" xmlns="http://www.w3.org/2000/svg"><path d="M11.43.931c-3.562 0-6.56 1.094-8.924 3.28C.813 5.8.107 8.974.496 13.454 1.623 26.787 13.37 53.03 34.957 67.07c.14.105.81-.282 1.587-1.376.882-1.305 1.446-2.928.811-3.386C13.053 41.354 4.658 22.554 4.87 11.937c.07-3.21.988-5.644 2.54-6.879l.106-.07h.106C19.05 6.222 32.313 20.543 33.724 22.095c2.68-.317 4.48-1.481 6.102-3.88.459-.67.917-1.517 1.411-2.399 2.434-4.373 5.785-10.335 12.734-8.183 1.834.564 3.175 2.222 3.81 4.762 1.199 4.656.105 12.099-2.893 19.93-3.351 8.782-8.748 17.248-15.203 23.844-.353.388-.529.847-.423 1.2.07.246.282.423.6.493 1.199.283 3.844-.917 7.654-5.079C60.849 38.074 66.07 20.684 65.506 13.03c-.283-3.95-1.73-7.02-4.304-9.136-2.751-2.257-5.855-2.998-9.206-2.187C45.68 3.224 39.79 9.891 37.25 15.675l-.211.53-.282-.459C33.017 9.679 23.282 2.377 14.076 1.108A17.235 17.235 0 0011.43.93z" fill="#0AF"/></svg>