<svg width="74" height="74" fill="none" xmlns="http://www.w3.org/2000/svg"><path d="M66.718 49.892c-4.797-.988-52.487.07-55.344 0-1.376-.035.811 5.08 1.587 4.903.424-.106 1.235-.176 2.293-.282 2.47 6.914.6 12.134-.423 14.25-1.482 0-2.434.071-2.646.141-1.375.636.212 4.621 2.364 4.798 2.116.176 41.552-.882 50.088 0 8.536.917 9.347-22.293 2.08-23.81zm-4.55 18.836c-8.501.812-30.547.212-42.328.07 1.305-4.408 1.128-11.745.317-14.567 13.44-.635 40.212-.953 42.187-.388 3.845 1.058 3.915 14.497-.176 14.885zM6.86 19.204H5.341s-1.34 4.657 0 4.939c1.34.282 17.92.211 18.625.035.106-.035.247-.07.352-.141 11.782-.212 32.522-.564 34.357-.564 6.172 0 5.361-22.575-.212-22.54-1.728 0-22.046-.53-35.309-.706-.106 0-.176-.035-.282-.035h-5.466v.07C12.256.37 5.378.475 5.378.475c-.882.353 0 5.538.529 5.362.106-.035.705-.07 1.552-.106 2.363 5.961.494 11.217-.6 13.474zM55.571 5.13c2.857.988 2.963 13.299-.565 13.404-1.375.036-17.002.388-27.901.635.846-4.091.6-9.77-.494-13.827 11.358-.176 28.466-.388 28.96-.212zm-38.907.283v.07s.882 0 2.399-.035c2.822.952 4.056 13.898-.635 13.792h-6.596c1.164-4.127 1.093-10.547.423-13.686 1.587-.07 3.175-.141 4.41-.141zM73.42 25.8c-5.15.883-65.185 1.8-68.642 1.623-7.372-.352-5.115 20 .564 19.612 4.621-.317 63.21.741 64.162.741.988 0 2.258-5.115.918-5.15-1.13-.035-2.399-.106-3.74-.106-.987-2.293-2.151-6.455-.564-11.57 3.81-.035 6.208-.07 6.385-.07.776-.035 2.08-5.291.917-5.08zm-11.5 16.614c-18.13-.14-45.996.917-50.476.67-4.69-.282-5.29-10.758-1.305-11.428.953-.141 33.651-.53 51.288-.705-.353 3.139-.318 7.936.494 11.463z" fill="#0AF"/></svg>