<svg width="72" height="68" fill="none" xmlns="http://www.w3.org/2000/svg"><path d="M65.647 17.086c-.282-1.128-.811-1.023-1.375-.282.846-4.867 0-9.065 1.763-10.617.388-.353.706-.67.953-.988 3.315-.987 4.656-2.151 1.375-2.963-1.87-.494-9.277-4.02-14.532 2.328-2.752 3.316-5.574 8.713-8.854 14.11a15.032 15.032 0 00-.776-.635c-5.785-4.41-20.6-5.08-15.132-7.83 2.892-1.447 11.64-3.105 15.767-.848 2.645 1.411 3.316-1.093 2.152-2.08C44.765 5.27 18.91 4.528 2.578 19.202c-3.21 2.857 14.075-8.466 40.847 1.975-3.81 5.961-8.219 11.534-13.862 13.827C12.49 41.955.85 51.795.85 51.795c-1.481 2.54 19.224-9.206 30.053-8.324 3.492.282-8.96 15.661-9.488 23.492-.177 2.716 8.712-18.554 22.363-26.984 3.774-2.328 2.61-3.104-2.822.176-5.432 3.28-.917-.811-6.35-.282-5.431.494-1.834-.282 6.35-6.384 8.183-6.103 10.547-25.82 19.26-26.985.175-.035.317-.035.493-.07-2.47 4.656 0 15.061-2.434 17.778-2.892 3.245-1.34 4.903.953 2.54a19.107 19.107 0 002.575-3.281c-.071.705-.036 1.234.176 1.446 1.093 1.235 2.081 1.34 4.197 8.536 2.117 7.196-3.245.706-6.949-1.34-3.738-2.046-2.151 1.834-2.151 1.834 9.1 7.901 8.818 20.952 8.324 23.739-.494 2.787 1.905 2.787 3.104-.317 6.667-17.496-.81-32.31-2.857-40.283z" fill="#0AF"/></svg>